<?xml version="1.0" encoding="UTF-8"?>
<!DOCTYPE svg PUBLIC "-//W3C//DTD SVG 1.1//EN" "http://www.w3.org/Graphics/SVG/1.1/DTD/svg11.dtd">
<svg xmlns="http://www.w3.org/2000/svg" version="1.1" width="64px" height="64px" style="shape-rendering:geometricPrecision; text-rendering:geometricPrecision; image-rendering:optimizeQuality; fill-rule:evenodd; clip-rule:evenodd" xmlns:xlink="http://www.w3.org/1999/xlink">
<g><path style="opacity:0.872" fill="#6cf662" d="M 27.5,-0.5 C 30.1667,-0.5 32.8333,-0.5 35.5,-0.5C 39.4346,3.67049 39.4346,7.83716 35.5,12C 27.7286,14.2191 24.2286,11.3857 25,3.5C 25.6622,2.01608 26.4955,0.682751 27.5,-0.5 Z"/></g>
<g><path style="opacity:0.806" fill="#7aff71" d="M 39.5,9.5 C 42.6571,9.07854 44.9905,10.2452 46.5,13C 42.3643,15.5447 40.0309,14.3781 39.5,9.5 Z"/></g>
<g><path style="opacity:0.821" fill="#79ff71" d="M 19.5,9.5 C 20.8333,9.5 22.1667,9.5 23.5,9.5C 22.9691,14.3781 20.6357,15.5447 16.5,13C 17.365,11.6412 18.365,10.4745 19.5,9.5 Z"/></g>
<g><path style="opacity:0.885" fill="#6cf662" d="M 6.5,11.5 C 14.379,11.216 17.2123,14.8827 15,22.5C 11,26.5 7,26.5 3,22.5C 1.51801,17.774 2.68468,14.1074 6.5,11.5 Z"/></g>
<g><path style="opacity:0.885" fill="#6cf662" d="M 51.5,11.5 C 59.379,11.216 62.2123,14.8827 60,22.5C 56,26.5 52,26.5 48,22.5C 46.518,17.774 47.6847,14.1074 51.5,11.5 Z"/></g>
<g><path style="opacity:0.96" fill="#14100a" d="M 26.5,17.5 C 43.2861,17.0726 48.7861,24.7392 43,40.5C 36.8025,46.1041 29.9692,46.9374 22.5,43C 17.7981,38.0782 16.2981,32.2448 18,25.5C 20.0982,21.8972 22.9315,19.2305 26.5,17.5 Z"/></g>
<g><path style="opacity:1" fill="#2bc91f" d="M 27.5,20.5 C 30.1194,20.2317 32.6194,20.565 35,21.5C 35.1667,21.8333 35.3333,22.1667 35.5,22.5C 31.1671,23.8294 30.5004,26.1627 33.5,29.5C 34.8924,28.3947 36.059,27.0614 37,25.5C 38.2635,27.607 40.0968,28.607 42.5,28.5C 42.4368,39.7501 37.1035,43.9167 26.5,41C 29.9291,38.8877 30.2625,36.3877 27.5,33.5C 28.8334,32.3801 29.3334,31.0468 29,29.5C 28.2825,28.5494 27.4491,28.3828 26.5,29C 23.9188,36.0006 21.9188,36.0006 20.5,29C 21.9593,25.3806 24.2927,22.5472 27.5,20.5 Z"/></g>
<g><path style="opacity:0.993" fill="#79ff70" d="M 7.5,28.5 C 8.5,28.5 9.5,28.5 10.5,28.5C 10.5,30.5 10.5,32.5 10.5,34.5C 9.5,34.5 8.5,34.5 7.5,34.5C 7.5,32.5 7.5,30.5 7.5,28.5 Z"/></g>
<g><path style="opacity:1" fill="#79ff70" d="M 52.5,28.5 C 53.5,28.5 54.5,28.5 55.5,28.5C 55.5,30.5 55.5,32.5 55.5,34.5C 54.5,34.5 53.5,34.5 52.5,34.5C 52.5,32.5 52.5,30.5 52.5,28.5 Z"/></g>
<g><path style="opacity:1" fill="#16160b" d="M 37.5,32.5 C 41.2076,33.5509 41.0409,34.8842 37,36.5C 35.7202,36.3865 34.8869,35.7199 34.5,34.5C 35.6016,33.8243 36.6016,33.1577 37.5,32.5 Z"/></g>
<g><path style="opacity:0.885" fill="#6cf662" d="M 6.5,37.5 C 14.379,37.216 17.2123,40.8827 15,48.5C 11,52.5 7,52.5 3,48.5C 1.51801,43.774 2.68468,40.1074 6.5,37.5 Z"/></g>
<g><path style="opacity:0.885" fill="#6cf662" d="M 51.5,37.5 C 59.379,37.216 62.2123,40.8827 60,48.5C 56,52.5 52,52.5 48,48.5C 46.518,43.774 47.6847,40.1074 51.5,37.5 Z"/></g>
<g><path style="opacity:0.779" fill="#79ff71" d="M 17.5,48.5 C 21.3491,48.0193 23.3491,49.686 23.5,53.5C 20.3429,53.9215 18.0095,52.7548 16.5,50C 17.056,49.6174 17.3893,49.1174 17.5,48.5 Z"/></g>
<g><path style="opacity:0.779" fill="#79ff72" d="M 41.5,48.5 C 46.0226,47.9768 47.0226,49.3101 44.5,52.5C 42.9291,53.3094 41.2624,53.6427 39.5,53.5C 39.3915,51.4862 40.0582,49.8195 41.5,48.5 Z"/></g>
<g><path style="opacity:0.872" fill="#6cf662" d="M 35.5,63.5 C 32.8333,63.5 30.1667,63.5 27.5,63.5C 23.5654,59.3295 23.5654,55.1628 27.5,51C 35.2714,48.7809 38.7714,51.6143 38,59.5C 37.3378,60.9839 36.5045,62.3172 35.5,63.5 Z"/></g>
</svg>
